<svg width="76" height="52" viewBox="0 0 76 52" fill="none" xmlns="http://www.w3.org/2000/svg">
<path d="M21.2188 28.6363V7.4448C21.2188 7.30212 21.3616 7.20417 21.4947 7.25551C27.5155 9.57736 38.6499 8.16103 43.533 7.14494C51.0957 4.69699 61.3579 6.08042 65.6983 7.10921C65.7881 7.13049 65.8473 7.20991 65.8473 7.3022V28.4049C65.8473 28.5713 65.6549 28.6672 65.5175 28.5735C61.1204 25.5736 51.927 26.7757 47.7833 27.7817C40.2088 30.2335 27.1488 29.5161 21.39 28.8341C21.2896 28.8222 21.2188 28.7375 21.2188 28.6363Z" stroke="black" stroke-width="0.75"/>
<circle cx="43.5347" cy="18.3294" r="6.59821" stroke="black" stroke-width="0.75"/>
<circle cx="28.1936" cy="18.3293" r="2.41428" stroke="black" stroke-width="0.75"/>
<circle cx="58.8762" cy="18.3293" r="2.41428" stroke="black" stroke-width="0.75"/>
<path d="M8.66797 45.3714V24.1799C8.66797 24.0372 8.81082 23.9393 8.94395 23.9906C14.9648 26.3125 26.0991 24.8961 30.9822 23.88C38.5449 21.4321 48.8072 22.8155 53.1475 23.8443C53.2373 23.8656 53.2965 23.945 53.2965 24.0373V45.14C53.2965 45.3064 53.1041 45.4023 52.9667 45.3086C48.5696 42.3088 39.3762 43.5108 35.2326 44.5168C27.658 46.9686 14.598 46.2512 8.83926 45.5692C8.73883 45.5573 8.66797 45.4726 8.66797 45.3714Z" fill="white" stroke="black" stroke-width="0.75"/>
<circle cx="30.981" cy="35.0648" r="6.59821" stroke="black" stroke-width="0.75"/>
<circle cx="15.6408" cy="35.0654" r="2.41428" stroke="black" stroke-width="0.75"/>
<circle cx="46.3244" cy="35.0654" r="2.41428" stroke="black" stroke-width="0.75"/>
</svg>
