<svg width="76" height="52" viewBox="0 0 76 52" fill="none" xmlns="http://www.w3.org/2000/svg">
<path d="M5.77833 38.0835L5.77854 6.33348C5.77855 5.22892 6.67398 4.3335 7.77854 4.3335H44.2523C45.3569 4.3335 46.2523 5.22893 46.2523 6.3335V38.0835C46.2523 39.1881 45.3569 40.0835 44.2523 40.0835H7.77833C6.67376 40.0835 5.77833 39.1881 5.77833 38.0835Z" stroke="black" stroke-width="0.75"/>
<path d="M46.0421 14.0835H58.972C59.618 14.0835 60.2242 14.3955 60.5996 14.9211L69.0608 26.7683C69.303 27.1075 69.4333 27.5139 69.4333 27.9307V38.0835C69.4333 39.1881 68.5378 40.0835 67.4333 40.0835H44.5166" stroke="black" stroke-width="0.75"/>
<path d="M57.5166 14.0835V24.0835C57.5166 25.7404 58.8597 27.0835 60.5166 27.0835H69.4333" stroke="black" stroke-width="0.75"/>
<circle cx="19.0589" cy="41.7083" r="5.58333" fill="white" stroke="black" stroke-width="0.75"/>
<circle cx="58.0589" cy="41.7083" r="5.58333" fill="white" stroke="black" stroke-width="0.75"/>
</svg>
