<svg width="76" height="52" viewBox="0 0 76 52" fill="none" xmlns="http://www.w3.org/2000/svg">
<path d="M36.6613 6.12158C48.9314 6.12158 58.8783 16.0685 58.8783 28.3386C58.8783 40.6087 48.9314 50.5555 36.6613 50.5555C24.3912 50.5555 14.4443 40.6087 14.4443 28.3386C14.4443 22.3224 16.8356 16.8647 20.7196 12.8642" stroke="black" stroke-width="0.75"/>
<path d="M27.7744 22.7842V35.0036L36.6612 39.447M27.7744 22.7842L36.6612 27.2276M27.7744 22.7842L36.6612 18.3408L45.548 22.7842M36.6612 39.447L45.548 35.0036V22.7842M36.6612 39.447V27.2276M45.548 22.7842L36.6612 27.2276" stroke="black" stroke-width="0.75"/>
<path d="M44.7217 1.45605L36.8828 5.96206L42.0522 13.3802" stroke="black" stroke-width="0.75"/>
</svg>
